<svg width="36" height="36" viewBox="0 0 36 36" fill="none" xmlns="http://www.w3.org/2000/svg">
<g clip-path="url(#clip0_1_683)">
<rect x="0.179474" y="0.179688" width="35.3205" height="35.3205" rx="17.6603" fill="white"/>
<rect x="0.179474" y="0.179688" width="35.3205" height="35.3205" rx="17.6603" fill="#FEC8C8" fill-opacity="0.5"/>
<path d="M9.48266 21.9404C10.3535 21.9404 11.0595 20.8814 11.0595 19.5752C11.0595 18.2689 10.3535 17.21 9.48266 17.21C8.61181 17.21 7.90585 18.2689 7.90585 19.5752C7.90585 20.8814 8.61181 21.9404 9.48266 21.9404Z" stroke="#FE5F62" stroke-width="1.17735" stroke-linecap="round" stroke-linejoin="round"/>
<path d="M14.213 14.8447C15.0839 14.8447 15.7898 13.7857 15.7898 12.4795C15.7898 11.1732 15.0839 10.1143 14.213 10.1143C13.3422 10.1143 12.6362 11.1732 12.6362 12.4795C12.6362 13.7857 13.3422 14.8447 14.213 14.8447Z" stroke="#FE5F62" stroke-width="1.17735" stroke-linecap="round" stroke-linejoin="round"/>
<path d="M22.0971 14.8447C22.9679 14.8447 23.6739 13.7857 23.6739 12.4795C23.6739 11.1732 22.9679 10.1143 22.0971 10.1143C21.2262 10.1143 20.5203 11.1732 20.5203 12.4795C20.5203 13.7857 21.2262 14.8447 22.0971 14.8447Z" stroke="#FE5F62" stroke-width="1.17735" stroke-linecap="round" stroke-linejoin="round"/>
<path d="M26.8276 21.9404C27.6984 21.9404 28.4044 20.8814 28.4044 19.5752C28.4044 18.2689 27.6984 17.21 26.8276 17.21C25.9568 17.21 25.2508 18.2689 25.2508 19.5752C25.2508 20.8814 25.9568 21.9404 26.8276 21.9404Z" stroke="#FE5F62" stroke-width="1.17735" stroke-linecap="round" stroke-linejoin="round"/>
<path d="M22.8855 22.7288C22.8855 24.9048 20.3311 25.8824 18.1551 25.8824C15.9791 25.8824 13.4247 24.9048 13.4247 22.7288C13.4247 20.5528 15.0015 17.21 18.1551 17.21C21.3087 17.21 22.8855 20.5528 22.8855 22.7288Z" stroke="#FE5F62" stroke-width="1.17735" stroke-linecap="round" stroke-linejoin="round"/>
</g>
<rect x="0.415119" y="0.415332" width="34.8492" height="34.8492" rx="17.4246" stroke="#FE5F62" stroke-width="0.47129"/>
<defs>
<clipPath id="clip0_1_683">
<rect x="0.179474" y="0.179688" width="35.3205" height="35.3205" rx="17.6603" fill="white"/>
</clipPath>
</defs>
</svg>
