<svg width="333" height="106" viewBox="0 0 333 106" fill="none" xmlns="http://www.w3.org/2000/svg">
<path d="M37.216 105.896C26.72 105.896 18.1013 103.421 11.36 98.472C4.61867 93.4373 0.992 86.2693 0.48 76.968H27.232C27.488 80.1253 28.4267 82.4293 30.048 83.88C31.6693 85.3307 33.76 86.056 36.32 86.056C38.624 86.056 40.5013 85.5013 41.952 84.392C43.488 83.1973 44.256 81.576 44.256 79.528C44.256 76.8827 43.0187 74.8347 40.544 73.384C38.0693 71.9333 34.0587 70.312 28.512 68.52C22.624 66.5573 17.8453 64.68 14.176 62.888C10.592 61.0107 7.43467 58.3227 4.704 54.824C2.05867 51.24 0.736 46.5893 0.736 40.872C0.736 35.0693 2.18667 30.12 5.088 26.024C7.98933 21.8427 12 18.6853 17.12 16.552C22.24 14.4187 28.0427 13.352 34.528 13.352C45.024 13.352 53.3867 15.8267 59.616 20.776C65.9307 25.64 69.3013 32.5093 69.728 41.384H42.464C42.3787 38.6533 41.5253 36.6053 39.904 35.24C38.368 33.8747 36.3627 33.192 33.888 33.192C32.0107 33.192 30.4747 33.7467 29.28 34.856C28.0853 35.9653 27.488 37.544 27.488 39.592C27.488 41.2987 28.128 42.792 29.408 44.072C30.7733 45.2667 32.4373 46.3333 34.4 47.272C36.3627 48.1253 39.264 49.2347 43.104 50.6C48.8213 52.5627 53.5147 54.5253 57.184 56.488C60.9387 58.3653 64.1387 61.0533 66.784 64.552C69.5147 67.9653 70.88 72.3173 70.88 77.608C70.88 82.984 69.5147 87.8053 66.784 92.072C64.1387 96.3387 60.256 99.7093 55.136 102.184C50.1013 104.659 44.128 105.896 37.216 105.896ZM129.519 32.552C137.796 32.552 144.367 35.3253 149.231 40.872C154.095 46.3333 156.527 53.7573 156.527 63.144V105H131.439V66.472C131.439 62.376 130.372 59.176 128.239 56.872C126.106 54.4827 123.247 53.288 119.663 53.288C115.908 53.288 112.964 54.4827 110.831 56.872C108.698 59.176 107.631 62.376 107.631 66.472V105H82.543V33.192H107.631V43.432C109.85 40.1893 112.836 37.5867 116.591 35.624C120.346 33.576 124.655 32.552 129.519 32.552ZM182.965 26.536C178.528 26.536 174.944 25.3413 172.213 22.952C169.568 20.4773 168.245 17.4053 168.245 13.736C168.245 9.98133 169.568 6.86666 172.213 4.392C174.944 1.91733 178.528 0.679993 182.965 0.679993C187.317 0.679993 190.816 1.91733 193.461 4.392C196.192 6.86666 197.557 9.98133 197.557 13.736C197.557 17.4053 196.192 20.4773 193.461 22.952C190.816 25.3413 187.317 26.536 182.965 26.536ZM195.381 33.192V105H170.293V33.192H195.381Z" fill="#3F3D56"/>
<path d="M248.452 54.056H237.188V105H211.972V54.056H204.164V33.192H211.972V32.552C211.972 23.336 214.66 16.296 220.036 11.432C225.497 6.48266 233.305 4.008 243.46 4.008C245.508 4.008 247.087 4.05066 248.196 4.13599V25.512C247.513 25.4267 246.575 25.384 245.38 25.384C242.649 25.384 240.644 26.024 239.364 27.304C238.084 28.4987 237.359 30.4613 237.188 33.192H248.452V54.056ZM296.202 54.056H284.938V105H259.722V54.056H251.914V33.192H259.722V32.552C259.722 23.336 262.41 16.296 267.786 11.432C273.247 6.48266 281.055 4.008 291.21 4.008C293.258 4.008 294.837 4.05066 295.946 4.13599V25.512C295.263 25.4267 294.325 25.384 293.13 25.384C290.399 25.384 288.394 26.024 287.114 27.304C285.834 28.4987 285.109 30.4613 284.938 33.192H296.202V54.056ZM317.84 26.536C313.403 26.536 309.819 25.3413 307.088 22.952C304.443 20.4773 303.12 17.4053 303.12 13.736C303.12 9.98133 304.443 6.86666 307.088 4.392C309.819 1.91733 313.403 0.679993 317.84 0.679993C322.192 0.679993 325.691 1.91733 328.336 4.392C331.067 6.86666 332.432 9.98133 332.432 13.736C332.432 17.4053 331.067 20.4773 328.336 22.952C325.691 25.3413 322.192 26.536 317.84 26.536ZM330.256 33.192V105H305.168V33.192H330.256Z" fill="#FE5F62"/>
</svg>
